Coordinates
version=1
nRows=13
nColumns=34
inDegrees=yes

Units are S.I. units (second, meters, Newtons, ...)
If the header above contains a line with 'inDegrees', this indicates whether rotational values are in degrees (yes) or radians (no).

endheader
time	pelvis_tilt	pelvis_list	pelvis_rotation	pelvis_tx	pelvis_ty	pelvis_tz	hip_flexion_r	hip_adduction_r	hip_rotation_r	knee_angle_r	ankle_angle_r	subtalar_angle_r	mtp_angle_r	hip_flexion_l	hip_adduction_l	hip_rotation_l	knee_angle_l	ankle_angle_l	subtalar_angle_l	mtp_angle_l	lumbar_extension	lumbar_bending	lumbar_rotation	arm_flex_r	arm_add_r	arm_rot_r	elbow_flex_r	pro_sup_r	arm_flex_l	arm_add_l	arm_rot_l	elbow_flex_l	pro_sup_l
      8.91666670	      2.34719581	     -8.98435582	    -63.32684851	      3.42843105	      1.09335765	      9.52588353	     17.66925115	     -2.41484258	     -0.41295769	      6.66889580	      0.36867188	     -0.47384248	      0.00000000	    -25.85012571	      2.57713513	      1.41977252	      6.33158190	     18.56377035	      1.11845160	      0.00000000	    -12.74455973	      2.21112536	    -15.25998706	     -0.71123214	    -14.56283249	     -2.40549682	     46.49218383	    119.74817918	     28.92128763	    -13.22240342	     21.17015839	     59.35731108	    119.74817918
      8.93333330	      2.45739736	     -9.21251989	    -63.30953150	      3.43511088	      1.09264249	      9.54974386	     17.65743260	     -2.31353937	     -0.47268958	      9.35468876	     -0.19505898	     -2.23006947	      0.00000000	    -26.51303163	      2.07423908	      1.62683823	      8.67024659	     18.92503035	      1.57728812	      0.00000000	    -12.75793289	      2.27344836	    -15.85684592	     -1.75031668	    -14.72731201	     -3.94933485	     46.39930476	    119.74817918	     27.87201289	    -13.18762827	     20.10483869	     59.26091349	    119.74817918
      8.95000000	      2.49553209	     -9.42276981	    -63.63284912	      3.44051681	      1.09269598	      9.57294856	     17.70886399	     -1.98513862	     -0.30637890	     12.13329839	     -0.60210446	     -3.98800618	      0.00000000	    -27.37558870	      1.67653047	      1.60169357	     10.35155684	     18.75173016	      1.90006859	      0.00000000	    -12.66621612	      2.43574675	    -16.31951383	     -2.61892299	    -14.58981505	     -5.13801933	     44.84431041	    119.74817918	     26.93512741	    -13.06787144	     18.98363483	     58.39330890	    119.74817918
      8.96666670	      2.52486818	     -9.47478608	    -64.03352917	      3.44558752	      1.09307175	      9.59422638	     17.79568682	     -1.54540227	      0.64754610	     14.50624530	     -1.07948674	     -6.44249728	      0.00000000	    -27.77718758	      1.39733111	      1.09394511	     12.31825046	     18.21660758	      2.26167624	      0.00000000	    -12.49388580	      2.63572169	    -16.24928035	     -3.17691946	    -14.21414470	     -6.02494589	     42.88616298	    119.74817918	     25.72346885	    -12.90017062	     18.27264475	     57.44755678	    119.74817918
      8.98333330	      2.52507727	     -9.92072259	    -64.27700812	      3.45025173	      1.09931879	      9.61508133	     17.02343623	     -1.02814180	      0.84427482	     16.16164157	     -0.56779661	     -7.36872884	      0.00000000	    -27.96773950	      0.79005778	      0.69397953	     14.93584710	     16.72189623	      2.24567307	      0.00000000	    -12.46958742	      2.82861877	    -15.80054003	     -3.16899363	    -13.79819327	     -6.35232969	     40.57803542	    119.74817918	     24.38297400	    -12.24837963	     18.22185391	     55.53496858	    119.74817918
      9.00000000	      2.40161461	    -10.50480016	    -64.37893631	      3.45478151	      1.10626395	      9.63783095	     15.93436798	     -0.23529559	      1.52614671	     17.43130366	     -0.00533704	     -9.13982855	      0.00000000	    -27.16824439	     -0.30404103	     -0.50524232	     19.27737704	     14.72989855	      2.60797588	      0.00000000	    -12.15307828	      3.25440752	    -15.17927870	     -2.49150144	    -13.10713969	     -5.70183779	     37.49440939	    119.74817918	     23.08377920	    -11.61669096	     18.99463323	     53.05322178	    119.74817918
      9.01666670	      2.19240336	    -11.08436658	    -64.55456828	      3.46056687	      1.11187473	      9.66026844	     15.00418729	      0.61242346	      2.17762158	     18.87472610	      1.08739440	    -10.32853509	      0.00000000	    -25.30731954	     -1.61769165	     -1.95453536	     25.30309874	     11.93802496	      2.51294430	      0.00000000	    -12.08393303	      4.16373598	    -14.67409831	     -1.82872401	    -12.28763350	     -4.47862979	     34.56571454	    119.74817918	     21.81583140	    -10.91243198	     19.97901248	     50.03543320	    119.74817918
      9.03333330	      1.77234808	    -11.94903471	    -64.78839605	      3.46738061	      1.11737987	      9.68456867	     13.64624680	      1.79874233	      2.72689391	     19.83655747	      2.34412678	    -11.24727204	      0.00000000	    -22.42395938	     -3.48651909	     -3.30521149	     32.99138476	      8.47092391	      1.90689125	      0.00000000	    -11.81622018	      5.36800777	    -13.81003849	     -0.68855664	    -11.57444210	     -2.48061934	     32.18719780	    119.74817918	     20.65484601	    -10.56345057	     21.88717099	     47.35325009	    119.74817918
      9.05000000	      1.26703339	    -12.72002200	    -64.79660889	      3.47396626	      1.12307222	      9.71102107	     12.18446975	      3.03762480	      3.15494759	     20.43342124	      3.53389297	    -11.90640781	      0.00000000	    -18.82693272	     -5.60413148	     -4.05462277	     40.95017477	      5.10834874	      0.77300198	      0.00000000	    -11.73575131	      6.43014782	    -12.29716118	      1.28052329	    -10.93614972	      1.69310892	     30.22360500	    119.74817918	     19.78736129	     -9.92678548	     25.13600851	     43.45613045	    119.74817918
      9.06666670	      0.92360640	    -13.13407920	    -64.83905615	      3.48076761	      1.12671625	      9.73485181	     11.12919467	      3.97163983	      3.44781802	     21.30052138	      4.80586692	    -12.26019632	      0.00000000	    -15.69684897	     -7.33370255	     -4.16140320	     47.38140469	      3.50026193	     -0.67141313	      0.00000000	    -12.04727794	      7.30679583	    -10.77917916	      3.69543649	    -10.17365392	      6.72462079	     27.59025448	    119.74817918	     19.42649465	     -8.66910403	     28.31119276	     37.04284747	    119.74817918
      9.08333330	      0.67131433	    -13.47824207	    -64.64849184	      3.48716390	      1.13045255	      9.75899518	     10.05130929	      4.70542295	      3.62185853	     22.05797997	      6.09655513	    -12.14838597	      0.00000000	    -12.87922821	     -8.67783976	     -4.13680963	     52.67671385	      3.05636248	     -2.05145961	      0.00000000	    -12.30690174	      7.94353762	     -9.75477899	      5.68726768	     -9.61937705	     11.37157608	     24.60480781	    119.74817918	     19.37336989	     -7.77030742	     31.04984896	     31.21300743	    119.74817918
      9.10000000	      0.54744541	    -13.51622886	    -64.35830192	      3.49392577	      1.13318483	      9.78236582	      9.13993078	      5.18953466	      3.79635039	     22.83069464	      7.68396029	    -11.90468554	      0.00000000	     -9.91100503	     -9.56748284	     -3.86240297	     57.35680419	      3.27230996	     -3.25814401	      0.00000000	    -12.28351816	      8.20626621	     -9.09777667	      6.84239557	     -9.60833889	     14.66431356	     22.11523784	    119.74817918	     19.09780149	     -7.51767369	     31.94743696	     26.91238217	    119.74817918
      9.11666670	      0.38224318	    -13.62623193	    -64.11088797	      3.49973872	      1.13518249	      9.80417246	      8.37010245	      5.65475075	      3.60376774	     23.88798646	      9.00820422	    -11.35389065	      0.00000000	     -7.10404468	    -10.09624381	     -3.81177970	     61.22373685	      4.07600994	     -4.58294032	      0.00000000	    -12.54642089	      8.99694202	     -7.73875067	      8.56044867	     -9.48984813	     16.88329486	     19.64691366	    119.74817918	     19.02112376	     -7.02310299	     32.63184673	     23.55465253	    119.74817918
